<mxfile host="www.draw.io" modified="2020-02-06T03:42:34.604Z" agent="Mozilla/5.0 (Windows NT 6.1; Win64; x64) AppleWebKit/537.36 (KHTML, like Gecko) Chrome/74.0.3729.108 Safari/537.36" etag="xA7ckZaDsy64y7NyVUrU" version="12.6.5" type="github">
  <diagram id="C5RBs43oDa-KdzZeNtuy" name="Page-1">
    <mxGraphModel dx="1414" dy="749" grid="1" gridSize="10" guides="1" tooltips="1" connect="1" arrows="1" fold="1" page="1" pageScale="1" pageWidth="827" pageHeight="1169" math="0" shadow="0">
      <root>
        <mxCell id="WIyWlLk6GJQsqaUBKTNV-0"/>
        <mxCell id="WIyWlLk6GJQsqaUBKTNV-1" parent="WIyWlLk6GJQsqaUBKTNV-0"/>
        <mxCell id="zkfFHV4jXpPFQw0GAbJ--51" value="Customer" style="swimlane;fontStyle=1;childLayout=stackLayout;horizontal=1;startSize=26;horizontalStack=0;resizeParent=1;resizeLast=0;collapsible=1;marginBottom=0;rounded=0;shadow=0;strokeWidth=1;" parent="WIyWlLk6GJQsqaUBKTNV-1" vertex="1">
          <mxGeometry x="160" y="120" width="160" height="78" as="geometry">
            <mxRectangle x="20" y="80" width="160" height="26" as="alternateBounds"/>
          </mxGeometry>
        </mxCell>
        <mxCell id="zkfFHV4jXpPFQw0GAbJ--52" value="CustomerId" style="shape=partialRectangle;top=0;left=0;right=0;bottom=1;align=left;verticalAlign=top;fillColor=none;spacingLeft=40;spacingRight=4;overflow=hidden;rotatable=0;points=[[0,0.5],[1,0.5]];portConstraint=eastwest;dropTarget=0;rounded=0;shadow=0;strokeWidth=1;fontStyle=4" parent="zkfFHV4jXpPFQw0GAbJ--51" vertex="1">
          <mxGeometry y="26" width="160" height="26" as="geometry"/>
        </mxCell>
        <mxCell id="zkfFHV4jXpPFQw0GAbJ--53" value="PK" style="shape=partialRectangle;top=0;left=0;bottom=0;fillColor=none;align=left;verticalAlign=top;spacingLeft=4;spacingRight=4;overflow=hidden;rotatable=0;points=[];portConstraint=eastwest;part=1;" parent="zkfFHV4jXpPFQw0GAbJ--52" vertex="1" connectable="0">
          <mxGeometry width="36" height="26" as="geometry"/>
        </mxCell>
        <mxCell id="zkfFHV4jXpPFQw0GAbJ--54" value="Name" style="shape=partialRectangle;top=0;left=0;right=0;bottom=0;align=left;verticalAlign=top;fillColor=none;spacingLeft=40;spacingRight=4;overflow=hidden;rotatable=0;points=[[0,0.5],[1,0.5]];portConstraint=eastwest;dropTarget=0;rounded=0;shadow=0;strokeWidth=1;" parent="zkfFHV4jXpPFQw0GAbJ--51" vertex="1">
          <mxGeometry y="52" width="160" height="26" as="geometry"/>
        </mxCell>
        <mxCell id="zkfFHV4jXpPFQw0GAbJ--55" value="" style="shape=partialRectangle;top=0;left=0;bottom=0;fillColor=none;align=left;verticalAlign=top;spacingLeft=4;spacingRight=4;overflow=hidden;rotatable=0;points=[];portConstraint=eastwest;part=1;" parent="zkfFHV4jXpPFQw0GAbJ--54" vertex="1" connectable="0">
          <mxGeometry width="36" height="26" as="geometry"/>
        </mxCell>
        <mxCell id="zkfFHV4jXpPFQw0GAbJ--56" value="Order" style="swimlane;fontStyle=1;childLayout=stackLayout;horizontal=1;startSize=26;horizontalStack=0;resizeParent=1;resizeLast=0;collapsible=1;marginBottom=0;rounded=0;shadow=0;strokeWidth=1;" parent="WIyWlLk6GJQsqaUBKTNV-1" vertex="1">
          <mxGeometry x="400" y="120" width="160" height="104" as="geometry">
            <mxRectangle x="260" y="80" width="160" height="26" as="alternateBounds"/>
          </mxGeometry>
        </mxCell>
        <mxCell id="zkfFHV4jXpPFQw0GAbJ--57" value="OrderId" style="shape=partialRectangle;top=0;left=0;right=0;bottom=1;align=left;verticalAlign=top;fillColor=none;spacingLeft=40;spacingRight=4;overflow=hidden;rotatable=0;points=[[0,0.5],[1,0.5]];portConstraint=eastwest;dropTarget=0;rounded=0;shadow=0;strokeWidth=1;fontStyle=4" parent="zkfFHV4jXpPFQw0GAbJ--56" vertex="1">
          <mxGeometry y="26" width="160" height="26" as="geometry"/>
        </mxCell>
        <mxCell id="zkfFHV4jXpPFQw0GAbJ--58" value="PK" style="shape=partialRectangle;top=0;left=0;bottom=0;fillColor=none;align=left;verticalAlign=top;spacingLeft=4;spacingRight=4;overflow=hidden;rotatable=0;points=[];portConstraint=eastwest;part=1;" parent="zkfFHV4jXpPFQw0GAbJ--57" vertex="1" connectable="0">
          <mxGeometry width="36" height="26" as="geometry"/>
        </mxCell>
        <mxCell id="zkfFHV4jXpPFQw0GAbJ--59" value="CustomerId" style="shape=partialRectangle;top=0;left=0;right=0;bottom=0;align=left;verticalAlign=top;fillColor=none;spacingLeft=40;spacingRight=4;overflow=hidden;rotatable=0;points=[[0,0.5],[1,0.5]];portConstraint=eastwest;dropTarget=0;rounded=0;shadow=0;strokeWidth=1;" parent="zkfFHV4jXpPFQw0GAbJ--56" vertex="1">
          <mxGeometry y="52" width="160" height="26" as="geometry"/>
        </mxCell>
        <mxCell id="zkfFHV4jXpPFQw0GAbJ--60" value="FK1" style="shape=partialRectangle;top=0;left=0;bottom=0;fillColor=none;align=left;verticalAlign=top;spacingLeft=4;spacingRight=4;overflow=hidden;rotatable=0;points=[];portConstraint=eastwest;part=1;" parent="zkfFHV4jXpPFQw0GAbJ--59" vertex="1" connectable="0">
          <mxGeometry width="36" height="26" as="geometry"/>
        </mxCell>
        <mxCell id="zkfFHV4jXpPFQw0GAbJ--61" value="Date" style="shape=partialRectangle;top=0;left=0;right=0;bottom=0;align=left;verticalAlign=top;fillColor=none;spacingLeft=40;spacingRight=4;overflow=hidden;rotatable=0;points=[[0,0.5],[1,0.5]];portConstraint=eastwest;dropTarget=0;rounded=0;shadow=0;strokeWidth=1;" parent="zkfFHV4jXpPFQw0GAbJ--56" vertex="1">
          <mxGeometry y="78" width="160" height="26" as="geometry"/>
        </mxCell>
        <mxCell id="zkfFHV4jXpPFQw0GAbJ--62" value="" style="shape=partialRectangle;top=0;left=0;bottom=0;fillColor=none;align=left;verticalAlign=top;spacingLeft=4;spacingRight=4;overflow=hidden;rotatable=0;points=[];portConstraint=eastwest;part=1;" parent="zkfFHV4jXpPFQw0GAbJ--61" vertex="1" connectable="0">
          <mxGeometry width="36" height="26" as="geometry"/>
        </mxCell>
        <mxCell id="zkfFHV4jXpPFQw0GAbJ--63" value="" style="edgeStyle=orthogonalEdgeStyle;endArrow=ERzeroToMany;startArrow=ERmandOne;shadow=0;strokeWidth=1;endSize=8;startSize=8;" parent="WIyWlLk6GJQsqaUBKTNV-1" source="zkfFHV4jXpPFQw0GAbJ--52" target="zkfFHV4jXpPFQw0GAbJ--57" edge="1">
          <mxGeometry width="100" height="100" relative="1" as="geometry">
            <mxPoint x="310" y="390" as="sourcePoint"/>
            <mxPoint x="410" y="290" as="targetPoint"/>
          </mxGeometry>
        </mxCell>
        <mxCell id="zkfFHV4jXpPFQw0GAbJ--64" value="Shipment" style="swimlane;fontStyle=1;childLayout=stackLayout;horizontal=1;startSize=26;horizontalStack=0;resizeParent=1;resizeLast=0;collapsible=1;marginBottom=0;rounded=0;shadow=0;strokeWidth=1;" parent="WIyWlLk6GJQsqaUBKTNV-1" vertex="1">
          <mxGeometry x="400" y="310" width="160" height="104" as="geometry">
            <mxRectangle x="260" y="270" width="160" height="26" as="alternateBounds"/>
          </mxGeometry>
        </mxCell>
        <mxCell id="zkfFHV4jXpPFQw0GAbJ--65" value="ShipmentId" style="shape=partialRectangle;top=0;left=0;right=0;bottom=1;align=left;verticalAlign=top;fillColor=none;spacingLeft=40;spacingRight=4;overflow=hidden;rotatable=0;points=[[0,0.5],[1,0.5]];portConstraint=eastwest;dropTarget=0;rounded=0;shadow=0;strokeWidth=1;fontStyle=4" parent="zkfFHV4jXpPFQw0GAbJ--64" vertex="1">
          <mxGeometry y="26" width="160" height="26" as="geometry"/>
        </mxCell>
        <mxCell id="zkfFHV4jXpPFQw0GAbJ--66" value="PK" style="shape=partialRectangle;top=0;left=0;bottom=0;fillColor=none;align=left;verticalAlign=top;spacingLeft=4;spacingRight=4;overflow=hidden;rotatable=0;points=[];portConstraint=eastwest;part=1;" parent="zkfFHV4jXpPFQw0GAbJ--65" vertex="1" connectable="0">
          <mxGeometry width="36" height="26" as="geometry"/>
        </mxCell>
        <mxCell id="zkfFHV4jXpPFQw0GAbJ--67" value="OrderId" style="shape=partialRectangle;top=0;left=0;right=0;bottom=0;align=left;verticalAlign=top;fillColor=none;spacingLeft=40;spacingRight=4;overflow=hidden;rotatable=0;points=[[0,0.5],[1,0.5]];portConstraint=eastwest;dropTarget=0;rounded=0;shadow=0;strokeWidth=1;" parent="zkfFHV4jXpPFQw0GAbJ--64" vertex="1">
          <mxGeometry y="52" width="160" height="26" as="geometry"/>
        </mxCell>
        <mxCell id="zkfFHV4jXpPFQw0GAbJ--68" value="FK1" style="shape=partialRectangle;top=0;left=0;bottom=0;fillColor=none;align=left;verticalAlign=top;spacingLeft=4;spacingRight=4;overflow=hidden;rotatable=0;points=[];portConstraint=eastwest;part=1;" parent="zkfFHV4jXpPFQw0GAbJ--67" vertex="1" connectable="0">
          <mxGeometry width="36" height="26" as="geometry"/>
        </mxCell>
        <mxCell id="zkfFHV4jXpPFQw0GAbJ--69" value="Date" style="shape=partialRectangle;top=0;left=0;right=0;bottom=0;align=left;verticalAlign=top;fillColor=none;spacingLeft=40;spacingRight=4;overflow=hidden;rotatable=0;points=[[0,0.5],[1,0.5]];portConstraint=eastwest;dropTarget=0;rounded=0;shadow=0;strokeWidth=1;" parent="zkfFHV4jXpPFQw0GAbJ--64" vertex="1">
          <mxGeometry y="78" width="160" height="26" as="geometry"/>
        </mxCell>
        <mxCell id="zkfFHV4jXpPFQw0GAbJ--70" value="" style="shape=partialRectangle;top=0;left=0;bottom=0;fillColor=none;align=left;verticalAlign=top;spacingLeft=4;spacingRight=4;overflow=hidden;rotatable=0;points=[];portConstraint=eastwest;part=1;" parent="zkfFHV4jXpPFQw0GAbJ--69" vertex="1" connectable="0">
          <mxGeometry width="36" height="26" as="geometry"/>
        </mxCell>
        <mxCell id="zkfFHV4jXpPFQw0GAbJ--71" value="" style="edgeStyle=orthogonalEdgeStyle;endArrow=ERzeroToMany;startArrow=ERmandOne;shadow=0;strokeWidth=1;endSize=8;startSize=8;" parent="WIyWlLk6GJQsqaUBKTNV-1" source="zkfFHV4jXpPFQw0GAbJ--56" target="zkfFHV4jXpPFQw0GAbJ--64" edge="1">
          <mxGeometry width="100" height="100" relative="1" as="geometry">
            <mxPoint x="410" y="182" as="sourcePoint"/>
            <mxPoint x="330" y="169" as="targetPoint"/>
            <Array as="points"/>
          </mxGeometry>
        </mxCell>
        <mxCell id="VZYzB3Bb4OvdbCZEF3PQ-10" style="edgeStyle=orthogonalEdgeStyle;rounded=0;orthogonalLoop=1;jettySize=auto;html=1;entryX=1;entryY=0.5;entryDx=0;entryDy=0;" edge="1" parent="WIyWlLk6GJQsqaUBKTNV-1" source="VZYzB3Bb4OvdbCZEF3PQ-0" target="VZYzB3Bb4OvdbCZEF3PQ-7">
          <mxGeometry relative="1" as="geometry"/>
        </mxCell>
        <mxCell id="VZYzB3Bb4OvdbCZEF3PQ-0" value="报警方案" style="rounded=0;whiteSpace=wrap;html=1;" vertex="1" parent="WIyWlLk6GJQsqaUBKTNV-1">
          <mxGeometry x="310" y="590" width="120" height="60" as="geometry"/>
        </mxCell>
        <mxCell id="VZYzB3Bb4OvdbCZEF3PQ-11" style="edgeStyle=orthogonalEdgeStyle;rounded=0;orthogonalLoop=1;jettySize=auto;html=1;" edge="1" parent="WIyWlLk6GJQsqaUBKTNV-1" source="VZYzB3Bb4OvdbCZEF3PQ-1" target="VZYzB3Bb4OvdbCZEF3PQ-0">
          <mxGeometry relative="1" as="geometry"/>
        </mxCell>
        <mxCell id="VZYzB3Bb4OvdbCZEF3PQ-1" value="通知方案" style="rounded=0;whiteSpace=wrap;html=1;" vertex="1" parent="WIyWlLk6GJQsqaUBKTNV-1">
          <mxGeometry x="510" y="590" width="120" height="60" as="geometry"/>
        </mxCell>
        <mxCell id="VZYzB3Bb4OvdbCZEF3PQ-8" style="edgeStyle=orthogonalEdgeStyle;rounded=0;orthogonalLoop=1;jettySize=auto;html=1;" edge="1" parent="WIyWlLk6GJQsqaUBKTNV-1" source="VZYzB3Bb4OvdbCZEF3PQ-2" target="VZYzB3Bb4OvdbCZEF3PQ-7">
          <mxGeometry relative="1" as="geometry"/>
        </mxCell>
        <mxCell id="VZYzB3Bb4OvdbCZEF3PQ-2" value="实时监测数据" style="rounded=0;whiteSpace=wrap;html=1;" vertex="1" parent="WIyWlLk6GJQsqaUBKTNV-1">
          <mxGeometry x="120" y="480" width="120" height="60" as="geometry"/>
        </mxCell>
        <mxCell id="VZYzB3Bb4OvdbCZEF3PQ-23" style="edgeStyle=orthogonalEdgeStyle;rounded=0;orthogonalLoop=1;jettySize=auto;html=1;entryX=0.5;entryY=0;entryDx=0;entryDy=0;entryPerimeter=0;" edge="1" parent="WIyWlLk6GJQsqaUBKTNV-1" target="VZYzB3Bb4OvdbCZEF3PQ-14">
          <mxGeometry relative="1" as="geometry">
            <mxPoint x="370" y="800" as="sourcePoint"/>
          </mxGeometry>
        </mxCell>
        <mxCell id="VZYzB3Bb4OvdbCZEF3PQ-22" style="edgeStyle=orthogonalEdgeStyle;rounded=0;orthogonalLoop=1;jettySize=auto;html=1;" edge="1" parent="WIyWlLk6GJQsqaUBKTNV-1" source="VZYzB3Bb4OvdbCZEF3PQ-5" target="VZYzB3Bb4OvdbCZEF3PQ-28">
          <mxGeometry relative="1" as="geometry">
            <mxPoint x="310" y="770" as="targetPoint"/>
          </mxGeometry>
        </mxCell>
        <mxCell id="VZYzB3Bb4OvdbCZEF3PQ-5" value="报警实时数据库" style="shape=cylinder;whiteSpace=wrap;html=1;boundedLbl=1;backgroundOutline=1;" vertex="1" parent="WIyWlLk6GJQsqaUBKTNV-1">
          <mxGeometry x="200" y="730" width="60" height="80" as="geometry"/>
        </mxCell>
        <mxCell id="VZYzB3Bb4OvdbCZEF3PQ-6" value="报警历史数据库" style="shape=cylinder;whiteSpace=wrap;html=1;boundedLbl=1;backgroundOutline=1;" vertex="1" parent="WIyWlLk6GJQsqaUBKTNV-1">
          <mxGeometry x="90" y="730" width="60" height="80" as="geometry"/>
        </mxCell>
        <mxCell id="VZYzB3Bb4OvdbCZEF3PQ-12" style="edgeStyle=orthogonalEdgeStyle;rounded=0;orthogonalLoop=1;jettySize=auto;html=1;" edge="1" parent="WIyWlLk6GJQsqaUBKTNV-1" source="VZYzB3Bb4OvdbCZEF3PQ-7" target="VZYzB3Bb4OvdbCZEF3PQ-6">
          <mxGeometry relative="1" as="geometry"/>
        </mxCell>
        <mxCell id="VZYzB3Bb4OvdbCZEF3PQ-13" style="edgeStyle=orthogonalEdgeStyle;rounded=0;orthogonalLoop=1;jettySize=auto;html=1;" edge="1" parent="WIyWlLk6GJQsqaUBKTNV-1" source="VZYzB3Bb4OvdbCZEF3PQ-7" target="VZYzB3Bb4OvdbCZEF3PQ-5">
          <mxGeometry relative="1" as="geometry"/>
        </mxCell>
        <mxCell id="VZYzB3Bb4OvdbCZEF3PQ-7" value="&lt;span style=&quot;white-space: normal&quot;&gt;报警数据生成服务&lt;/span&gt;" style="shape=parallelogram;perimeter=parallelogramPerimeter;whiteSpace=wrap;html=1;" vertex="1" parent="WIyWlLk6GJQsqaUBKTNV-1">
          <mxGeometry x="120" y="590" width="120" height="60" as="geometry"/>
        </mxCell>
        <mxCell id="VZYzB3Bb4OvdbCZEF3PQ-9" value="上传" style="text;html=1;align=center;verticalAlign=middle;resizable=0;points=[];autosize=1;" vertex="1" parent="WIyWlLk6GJQsqaUBKTNV-1">
          <mxGeometry x="180" y="560" width="40" height="20" as="geometry"/>
        </mxCell>
        <mxCell id="VZYzB3Bb4OvdbCZEF3PQ-14" value="值班人员" style="shape=umlActor;verticalLabelPosition=bottom;labelBackgroundColor=#ffffff;verticalAlign=top;html=1;outlineConnect=0;" vertex="1" parent="WIyWlLk6GJQsqaUBKTNV-1">
          <mxGeometry x="355" y="840" width="30" height="60" as="geometry"/>
        </mxCell>
        <mxCell id="VZYzB3Bb4OvdbCZEF3PQ-15" value="查询" style="text;html=1;strokeColor=none;fillColor=none;align=center;verticalAlign=middle;whiteSpace=wrap;rounded=0;" vertex="1" parent="WIyWlLk6GJQsqaUBKTNV-1">
          <mxGeometry x="250" y="590" width="40" height="20" as="geometry"/>
        </mxCell>
        <mxCell id="VZYzB3Bb4OvdbCZEF3PQ-24" value="监测" style="text;html=1;strokeColor=none;fillColor=none;align=center;verticalAlign=middle;whiteSpace=wrap;rounded=0;" vertex="1" parent="WIyWlLk6GJQsqaUBKTNV-1">
          <mxGeometry x="260" y="740" width="40" height="20" as="geometry"/>
        </mxCell>
        <mxCell id="VZYzB3Bb4OvdbCZEF3PQ-27" value="通知" style="text;html=1;strokeColor=none;fillColor=none;align=center;verticalAlign=middle;whiteSpace=wrap;rounded=0;" vertex="1" parent="WIyWlLk6GJQsqaUBKTNV-1">
          <mxGeometry x="370" y="810" width="40" height="20" as="geometry"/>
        </mxCell>
        <mxCell id="VZYzB3Bb4OvdbCZEF3PQ-28" value="通知服务" style="shape=parallelogram;perimeter=parallelogramPerimeter;whiteSpace=wrap;html=1;" vertex="1" parent="WIyWlLk6GJQsqaUBKTNV-1">
          <mxGeometry x="310" y="740" width="120" height="60" as="geometry"/>
        </mxCell>
        <mxCell id="VZYzB3Bb4OvdbCZEF3PQ-68" value="" style="group" vertex="1" connectable="0" parent="WIyWlLk6GJQsqaUBKTNV-1">
          <mxGeometry x="550" y="1035" width="180" height="160" as="geometry"/>
        </mxCell>
        <mxCell id="VZYzB3Bb4OvdbCZEF3PQ-30" value="报警方案" style="rounded=0;whiteSpace=wrap;html=1;" vertex="1" parent="VZYzB3Bb4OvdbCZEF3PQ-68">
          <mxGeometry x="10" y="100" width="120" height="60" as="geometry"/>
        </mxCell>
        <mxCell id="VZYzB3Bb4OvdbCZEF3PQ-49" value="通知方案ID" style="ellipse;whiteSpace=wrap;html=1;aspect=fixed;fillColor=none;" vertex="1" parent="VZYzB3Bb4OvdbCZEF3PQ-68">
          <mxGeometry x="130" y="5" width="50" height="50" as="geometry"/>
        </mxCell>
        <mxCell id="VZYzB3Bb4OvdbCZEF3PQ-51" style="edgeStyle=none;rounded=0;orthogonalLoop=1;jettySize=auto;html=1;entryX=0;entryY=1;entryDx=0;entryDy=0;" edge="1" parent="VZYzB3Bb4OvdbCZEF3PQ-68" source="VZYzB3Bb4OvdbCZEF3PQ-30" target="VZYzB3Bb4OvdbCZEF3PQ-49">
          <mxGeometry relative="1" as="geometry"/>
        </mxCell>
        <mxCell id="VZYzB3Bb4OvdbCZEF3PQ-54" value="采集项code&amp;nbsp;" style="ellipse;whiteSpace=wrap;html=1;aspect=fixed;fillColor=none;" vertex="1" parent="VZYzB3Bb4OvdbCZEF3PQ-68">
          <mxGeometry width="50" height="50" as="geometry"/>
        </mxCell>
        <mxCell id="VZYzB3Bb4OvdbCZEF3PQ-55" style="edgeStyle=none;rounded=0;orthogonalLoop=1;jettySize=auto;html=1;entryX=1;entryY=1;entryDx=0;entryDy=0;" edge="1" parent="VZYzB3Bb4OvdbCZEF3PQ-68" source="VZYzB3Bb4OvdbCZEF3PQ-30" target="VZYzB3Bb4OvdbCZEF3PQ-54">
          <mxGeometry relative="1" as="geometry"/>
        </mxCell>
        <mxCell id="VZYzB3Bb4OvdbCZEF3PQ-63" value="报警规则" style="ellipse;whiteSpace=wrap;html=1;aspect=fixed;fillColor=none;" vertex="1" parent="VZYzB3Bb4OvdbCZEF3PQ-68">
          <mxGeometry x="60" width="50" height="50" as="geometry"/>
        </mxCell>
        <mxCell id="VZYzB3Bb4OvdbCZEF3PQ-64" style="edgeStyle=none;rounded=0;orthogonalLoop=1;jettySize=auto;html=1;entryX=0.3;entryY=0.98;entryDx=0;entryDy=0;entryPerimeter=0;" edge="1" parent="VZYzB3Bb4OvdbCZEF3PQ-68" source="VZYzB3Bb4OvdbCZEF3PQ-30" target="VZYzB3Bb4OvdbCZEF3PQ-63">
          <mxGeometry relative="1" as="geometry"/>
        </mxCell>
        <mxCell id="VZYzB3Bb4OvdbCZEF3PQ-69" value="" style="group" vertex="1" connectable="0" parent="WIyWlLk6GJQsqaUBKTNV-1">
          <mxGeometry x="740" y="1015" width="280" height="220" as="geometry"/>
        </mxCell>
        <mxCell id="VZYzB3Bb4OvdbCZEF3PQ-31" value="通知方案" style="rounded=0;whiteSpace=wrap;html=1;" vertex="1" parent="VZYzB3Bb4OvdbCZEF3PQ-69">
          <mxGeometry y="120" width="120" height="60" as="geometry"/>
        </mxCell>
        <mxCell id="VZYzB3Bb4OvdbCZEF3PQ-41" value="" style="group" vertex="1" connectable="0" parent="VZYzB3Bb4OvdbCZEF3PQ-69">
          <mxGeometry x="150" width="130" height="100" as="geometry"/>
        </mxCell>
        <mxCell id="VZYzB3Bb4OvdbCZEF3PQ-34" value="人员ID" style="ellipse;whiteSpace=wrap;html=1;aspect=fixed;" vertex="1" parent="VZYzB3Bb4OvdbCZEF3PQ-41">
          <mxGeometry x="10" y="25" width="50" height="50" as="geometry"/>
        </mxCell>
        <mxCell id="VZYzB3Bb4OvdbCZEF3PQ-36" value="时间间隔" style="ellipse;whiteSpace=wrap;html=1;aspect=fixed;" vertex="1" parent="VZYzB3Bb4OvdbCZEF3PQ-41">
          <mxGeometry x="70" y="25" width="50" height="50" as="geometry"/>
        </mxCell>
        <mxCell id="VZYzB3Bb4OvdbCZEF3PQ-38" value="" style="ellipse;whiteSpace=wrap;html=1;align=center;dashed=1;fillColor=none;direction=west;" vertex="1" parent="VZYzB3Bb4OvdbCZEF3PQ-41">
          <mxGeometry width="130" height="100" as="geometry"/>
        </mxCell>
        <mxCell id="VZYzB3Bb4OvdbCZEF3PQ-48" style="edgeStyle=none;rounded=0;orthogonalLoop=1;jettySize=auto;html=1;entryX=1;entryY=0;entryDx=0;entryDy=0;" edge="1" parent="VZYzB3Bb4OvdbCZEF3PQ-69" source="VZYzB3Bb4OvdbCZEF3PQ-31" target="VZYzB3Bb4OvdbCZEF3PQ-38">
          <mxGeometry relative="1" as="geometry">
            <mxPoint x="140" y="90" as="targetPoint"/>
          </mxGeometry>
        </mxCell>
        <mxCell id="VZYzB3Bb4OvdbCZEF3PQ-42" value="" style="group" vertex="1" connectable="0" parent="VZYzB3Bb4OvdbCZEF3PQ-69">
          <mxGeometry x="150" y="120" width="130" height="100" as="geometry"/>
        </mxCell>
        <mxCell id="VZYzB3Bb4OvdbCZEF3PQ-43" value="人员ID" style="ellipse;whiteSpace=wrap;html=1;aspect=fixed;" vertex="1" parent="VZYzB3Bb4OvdbCZEF3PQ-42">
          <mxGeometry x="10" y="25" width="50" height="50" as="geometry"/>
        </mxCell>
        <mxCell id="VZYzB3Bb4OvdbCZEF3PQ-44" value="时间间隔" style="ellipse;whiteSpace=wrap;html=1;aspect=fixed;" vertex="1" parent="VZYzB3Bb4OvdbCZEF3PQ-42">
          <mxGeometry x="70" y="25" width="50" height="50" as="geometry"/>
        </mxCell>
        <mxCell id="VZYzB3Bb4OvdbCZEF3PQ-45" value="" style="ellipse;whiteSpace=wrap;html=1;align=center;dashed=1;fillColor=none;direction=west;" vertex="1" parent="VZYzB3Bb4OvdbCZEF3PQ-42">
          <mxGeometry width="130" height="100" as="geometry"/>
        </mxCell>
        <mxCell id="VZYzB3Bb4OvdbCZEF3PQ-47" style="rounded=0;orthogonalLoop=1;jettySize=auto;html=1;entryX=1;entryY=0.5;entryDx=0;entryDy=0;" edge="1" parent="VZYzB3Bb4OvdbCZEF3PQ-69" source="VZYzB3Bb4OvdbCZEF3PQ-31" target="VZYzB3Bb4OvdbCZEF3PQ-45">
          <mxGeometry relative="1" as="geometry"/>
        </mxCell>
        <mxCell id="VZYzB3Bb4OvdbCZEF3PQ-75" value="" style="group" vertex="1" connectable="0" parent="WIyWlLk6GJQsqaUBKTNV-1">
          <mxGeometry x="490" y="1240" width="210" height="160" as="geometry"/>
        </mxCell>
        <mxCell id="VZYzB3Bb4OvdbCZEF3PQ-32" value="报警实时数据表&amp;nbsp;" style="rounded=0;whiteSpace=wrap;html=1;" vertex="1" parent="VZYzB3Bb4OvdbCZEF3PQ-75">
          <mxGeometry x="70" width="120" height="60" as="geometry"/>
        </mxCell>
        <mxCell id="VZYzB3Bb4OvdbCZEF3PQ-56" value="采集项code" style="ellipse;whiteSpace=wrap;html=1;aspect=fixed;fillColor=none;" vertex="1" parent="VZYzB3Bb4OvdbCZEF3PQ-75">
          <mxGeometry x="75" y="100" width="50" height="50" as="geometry"/>
        </mxCell>
        <mxCell id="VZYzB3Bb4OvdbCZEF3PQ-74" style="edgeStyle=none;rounded=0;orthogonalLoop=1;jettySize=auto;html=1;entryX=1;entryY=0;entryDx=0;entryDy=0;" edge="1" parent="VZYzB3Bb4OvdbCZEF3PQ-75" source="VZYzB3Bb4OvdbCZEF3PQ-32" target="VZYzB3Bb4OvdbCZEF3PQ-56">
          <mxGeometry relative="1" as="geometry"/>
        </mxCell>
        <mxCell id="VZYzB3Bb4OvdbCZEF3PQ-57" value="报警方案ID" style="ellipse;whiteSpace=wrap;html=1;aspect=fixed;fillColor=none;" vertex="1" parent="VZYzB3Bb4OvdbCZEF3PQ-75">
          <mxGeometry x="160" y="110" width="50" height="50" as="geometry"/>
        </mxCell>
        <mxCell id="VZYzB3Bb4OvdbCZEF3PQ-67" style="edgeStyle=none;rounded=0;orthogonalLoop=1;jettySize=auto;html=1;" edge="1" parent="VZYzB3Bb4OvdbCZEF3PQ-75" source="VZYzB3Bb4OvdbCZEF3PQ-32" target="VZYzB3Bb4OvdbCZEF3PQ-57">
          <mxGeometry relative="1" as="geometry"/>
        </mxCell>
        <mxCell id="VZYzB3Bb4OvdbCZEF3PQ-59" value="报警内容" style="ellipse;whiteSpace=wrap;html=1;aspect=fixed;fillColor=none;" vertex="1" parent="VZYzB3Bb4OvdbCZEF3PQ-75">
          <mxGeometry y="80" width="50" height="50" as="geometry"/>
        </mxCell>
        <mxCell id="VZYzB3Bb4OvdbCZEF3PQ-65" style="edgeStyle=none;rounded=0;orthogonalLoop=1;jettySize=auto;html=1;" edge="1" parent="VZYzB3Bb4OvdbCZEF3PQ-75" source="VZYzB3Bb4OvdbCZEF3PQ-32" target="VZYzB3Bb4OvdbCZEF3PQ-59">
          <mxGeometry relative="1" as="geometry"/>
        </mxCell>
        <mxCell id="VZYzB3Bb4OvdbCZEF3PQ-76" value="1：1" style="edgeStyle=none;rounded=0;orthogonalLoop=1;jettySize=auto;html=1;endArrow=none;endFill=0;" edge="1" parent="WIyWlLk6GJQsqaUBKTNV-1" source="VZYzB3Bb4OvdbCZEF3PQ-30" target="VZYzB3Bb4OvdbCZEF3PQ-31">
          <mxGeometry relative="1" as="geometry"/>
        </mxCell>
        <mxCell id="VZYzB3Bb4OvdbCZEF3PQ-77" value="1：N" style="edgeStyle=none;rounded=0;orthogonalLoop=1;jettySize=auto;html=1;entryX=0;entryY=0.5;entryDx=0;entryDy=0;endArrow=none;endFill=0;" edge="1" parent="WIyWlLk6GJQsqaUBKTNV-1" source="VZYzB3Bb4OvdbCZEF3PQ-29" target="VZYzB3Bb4OvdbCZEF3PQ-30">
          <mxGeometry relative="1" as="geometry"/>
        </mxCell>
        <mxCell id="VZYzB3Bb4OvdbCZEF3PQ-78" value="" style="group" vertex="1" connectable="0" parent="WIyWlLk6GJQsqaUBKTNV-1">
          <mxGeometry x="310" y="1040" width="170" height="170" as="geometry"/>
        </mxCell>
        <mxCell id="VZYzB3Bb4OvdbCZEF3PQ-70" value="" style="group" vertex="1" connectable="0" parent="VZYzB3Bb4OvdbCZEF3PQ-78">
          <mxGeometry width="170" height="170" as="geometry"/>
        </mxCell>
        <mxCell id="VZYzB3Bb4OvdbCZEF3PQ-29" value="实时监测数据" style="rounded=0;whiteSpace=wrap;html=1;" vertex="1" parent="VZYzB3Bb4OvdbCZEF3PQ-70">
          <mxGeometry x="40" y="90" width="120" height="60" as="geometry"/>
        </mxCell>
        <mxCell id="VZYzB3Bb4OvdbCZEF3PQ-50" value="采集项code&amp;nbsp;" style="ellipse;whiteSpace=wrap;html=1;aspect=fixed;fillColor=none;" vertex="1" parent="VZYzB3Bb4OvdbCZEF3PQ-70">
          <mxGeometry x="90" y="10" width="50" height="50" as="geometry"/>
        </mxCell>
        <mxCell id="VZYzB3Bb4OvdbCZEF3PQ-53" style="edgeStyle=none;rounded=0;orthogonalLoop=1;jettySize=auto;html=1;entryX=0;entryY=1;entryDx=0;entryDy=0;" edge="1" parent="VZYzB3Bb4OvdbCZEF3PQ-70" source="VZYzB3Bb4OvdbCZEF3PQ-29" target="VZYzB3Bb4OvdbCZEF3PQ-50">
          <mxGeometry relative="1" as="geometry"/>
        </mxCell>
        <mxCell id="VZYzB3Bb4OvdbCZEF3PQ-60" value="监测value" style="ellipse;whiteSpace=wrap;html=1;aspect=fixed;fillColor=none;" vertex="1" parent="VZYzB3Bb4OvdbCZEF3PQ-70">
          <mxGeometry y="10" width="50" height="50" as="geometry"/>
        </mxCell>
        <mxCell id="VZYzB3Bb4OvdbCZEF3PQ-61" style="edgeStyle=none;rounded=0;orthogonalLoop=1;jettySize=auto;html=1;entryX=0.5;entryY=1;entryDx=0;entryDy=0;" edge="1" parent="VZYzB3Bb4OvdbCZEF3PQ-70" source="VZYzB3Bb4OvdbCZEF3PQ-29" target="VZYzB3Bb4OvdbCZEF3PQ-60">
          <mxGeometry relative="1" as="geometry"/>
        </mxCell>
        <mxCell id="VZYzB3Bb4OvdbCZEF3PQ-79" style="edgeStyle=none;rounded=0;orthogonalLoop=1;jettySize=auto;html=1;endArrow=none;endFill=0;" edge="1" parent="WIyWlLk6GJQsqaUBKTNV-1" source="VZYzB3Bb4OvdbCZEF3PQ-30" target="VZYzB3Bb4OvdbCZEF3PQ-32">
          <mxGeometry relative="1" as="geometry"/>
        </mxCell>
        <mxCell id="VZYzB3Bb4OvdbCZEF3PQ-80" value="1&lt;br&gt;：&lt;br&gt;N" style="text;html=1;strokeColor=none;fillColor=none;align=center;verticalAlign=middle;whiteSpace=wrap;rounded=0;" vertex="1" parent="WIyWlLk6GJQsqaUBKTNV-1">
          <mxGeometry x="590" y="1210" width="30" height="20" as="geometry"/>
        </mxCell>
        <mxCell id="VZYzB3Bb4OvdbCZEF3PQ-95" style="edgeStyle=none;rounded=0;orthogonalLoop=1;jettySize=auto;html=1;entryX=0.5;entryY=0;entryDx=0;entryDy=0;endArrow=none;endFill=0;" edge="1" parent="WIyWlLk6GJQsqaUBKTNV-1" source="VZYzB3Bb4OvdbCZEF3PQ-81" target="VZYzB3Bb4OvdbCZEF3PQ-90">
          <mxGeometry relative="1" as="geometry"/>
        </mxCell>
        <mxCell id="VZYzB3Bb4OvdbCZEF3PQ-81" value="通知记录表" style="rounded=0;whiteSpace=wrap;html=1;fillColor=none;" vertex="1" parent="WIyWlLk6GJQsqaUBKTNV-1">
          <mxGeometry x="740" y="1240" width="120" height="60" as="geometry"/>
        </mxCell>
        <mxCell id="VZYzB3Bb4OvdbCZEF3PQ-90" value="报警实时数据ID" style="ellipse;whiteSpace=wrap;html=1;aspect=fixed;fillColor=none;" vertex="1" parent="WIyWlLk6GJQsqaUBKTNV-1">
          <mxGeometry x="790" y="1350" width="50" height="50" as="geometry"/>
        </mxCell>
        <mxCell id="VZYzB3Bb4OvdbCZEF3PQ-91" value="人员ID" style="ellipse;whiteSpace=wrap;html=1;aspect=fixed;fillColor=none;" vertex="1" parent="WIyWlLk6GJQsqaUBKTNV-1">
          <mxGeometry x="860" y="1350" width="50" height="50" as="geometry"/>
        </mxCell>
        <mxCell id="VZYzB3Bb4OvdbCZEF3PQ-92" value="通知方案ID" style="ellipse;whiteSpace=wrap;html=1;aspect=fixed;fillColor=none;" vertex="1" parent="WIyWlLk6GJQsqaUBKTNV-1">
          <mxGeometry x="930" y="1340" width="50" height="50" as="geometry"/>
        </mxCell>
        <mxCell id="VZYzB3Bb4OvdbCZEF3PQ-93" value="1：N" style="edgeStyle=none;rounded=0;orthogonalLoop=1;jettySize=auto;html=1;entryX=0;entryY=0.5;entryDx=0;entryDy=0;endArrow=none;endFill=0;" edge="1" parent="WIyWlLk6GJQsqaUBKTNV-1" source="VZYzB3Bb4OvdbCZEF3PQ-32" target="VZYzB3Bb4OvdbCZEF3PQ-81">
          <mxGeometry relative="1" as="geometry"/>
        </mxCell>
        <mxCell id="VZYzB3Bb4OvdbCZEF3PQ-94" value="1：N" style="edgeStyle=none;rounded=0;orthogonalLoop=1;jettySize=auto;html=1;entryX=0.5;entryY=0;entryDx=0;entryDy=0;endArrow=none;endFill=0;" edge="1" parent="WIyWlLk6GJQsqaUBKTNV-1" source="VZYzB3Bb4OvdbCZEF3PQ-31" target="VZYzB3Bb4OvdbCZEF3PQ-81">
          <mxGeometry relative="1" as="geometry"/>
        </mxCell>
      </root>
    </mxGraphModel>
  </diagram>
</mxfile>
